# xmcd
#
# Track frame offsets:
#	150
#	19809
#	36154
#	53824
#	69945
#	91204
#	111350
#	127503
#	147801
#	166409
#	186259
#	204378
#
# Disc length: 2926 seconds
# Revision: 0
# Processed by: cddbd v1.5.2PL0 Copyright (c) Steve Scherf et al.
# Submitted via: dBpowerAMP V12.0
#
DISCID=9b0b6c0c
DTITLE=Bobkatz, The - Bestkatz So Far So Good
DYEAR=2011
DGENRE=Country
TTITLE0=The Man In The Picture
TTITLE1=The Long Haul
TTITLE2=Welcome To Queensland
TTITLE3=Keen Eye For The Ordinary
TTITLE4=The First Step
TTITLE5=In The Coals
TTITLE6=The Old HR
TTITLE7=Thank You 
TTITLE8=Little River Town (Howlong NSW)
TTITLE9=The Red Top Table
TTITLE10=Sweet Water
TTITLE11=The Writer
EXTD=
EXTT0=
EXTT1=
EXTT2=
EXTT3=
EXTT4=
EXTT5=
EXTT6=
EXTT7=
EXTT8=
EXTT9=
EXTT10=
EXTT11=
PLAYORDER=
